<svg xmlns="http://www.w3.org/2000/svg" width="880" height="236" viewBox="0 0 880 236" role="img" aria-label="nuclear-learning — write on paper, read and checked the moment you pause">
  <rect width="880" height="236" fill="#1a1916"/>
  <rect x="1" y="1" width="878" height="234" rx="20" ry="20" fill="none" stroke="#34322c" stroke-width="1.5"/>
  
    <line x1="158" y1="116" x2="722" y2="116" stroke="#3d3a33" stroke-width="1.5" stroke-linecap="round"/>
    <g transform="translate(194 116)" fill="#f0efe9"><path transform="translate(0 0)" d="M9.26 0L4.03 0L4.03-24.77L9.26-24.77L9.26-20.54L9.50-20.54Q9.89-21.50 10.49-22.39Q11.09-23.28 11.95-23.93Q12.82-24.58 13.97-24.96Q15.12-25.34 16.66-25.34Q20.40-25.34 22.70-22.90Q25.01-20.45 25.01-15.94L25.01 0L19.78 0L19.78-15.17Q19.78-21.07 14.64-21.07Q13.63-21.07 12.67-20.81Q11.71-20.54 10.94-20.02Q10.18-19.49 9.72-18.67Q9.26-17.86 9.26-16.80"/><path transform="translate(28.8 0)" d="M19.54 0L19.54-4.22L19.30-4.22Q18.91-3.26 18.31-2.38Q17.71-1.49 16.85-0.84Q15.98-0.19 14.83 0.19Q13.68 0.58 12.14 0.58Q8.40 0.58 6.10-1.87Q3.79-4.32 3.79-8.83L3.79-24.77L9.02-24.77L9.02-9.60Q9.02-3.70 14.16-3.70Q15.17-3.70 16.13-3.96Q17.09-4.22 17.86-4.75Q18.62-5.28 19.08-6.07Q19.54-6.86 19.54-7.97L19.54-24.77L24.77-24.77L24.77 0"/><path transform="translate(57.6 0)" d="M15.31 0.58Q12.53 0.58 10.34-0.34Q8.16-1.25 6.65-2.93Q5.14-4.61 4.34-7.01Q3.55-9.41 3.55-12.38Q3.55-15.36 4.34-17.76Q5.14-20.16 6.65-21.84Q8.16-23.52 10.34-24.43Q12.53-25.34 15.26-25.34Q19.10-25.34 21.43-23.71Q23.76-22.08 24.91-19.49L20.83-17.28Q20.16-19.01 18.79-20.02Q17.42-21.02 15.26-21.02Q12.29-21.02 10.66-19.22Q9.02-17.42 9.02-14.45L9.02-10.32Q9.02-7.39 10.66-5.57Q12.29-3.74 15.36-3.74Q17.66-3.74 19.13-4.80Q20.59-5.86 21.46-7.68L25.30-5.33Q24.10-2.74 21.65-1.08Q19.20 0.58 15.31 0.58"/><path transform="translate(86.4 0)" d="M3.60 0L3.60-4.22L11.81-4.22L11.81-31.30L3.60-31.30L3.60-35.52L17.04-35.52L17.04-4.22L25.25-4.22L25.25 0"/><path transform="translate(115.2 0)" d="M14.93 0.58Q12.10 0.58 9.84-0.34Q7.58-1.25 6.05-2.93Q4.51-4.61 3.70-6.98Q2.88-9.36 2.88-12.34Q2.88-15.31 3.72-17.71Q4.56-20.11 6.07-21.82Q7.58-23.52 9.74-24.43Q11.90-25.34 14.54-25.34Q17.14-25.34 19.25-24.46Q21.36-23.57 22.85-21.94Q24.34-20.30 25.13-18.05Q25.92-15.79 25.92-13.06L25.92-11.09L8.16-11.09L8.16-10.27Q8.16-7.34 9.98-5.50Q11.81-3.65 15.02-3.65Q17.42-3.65 19.13-4.68Q20.83-5.71 21.89-7.44L25.15-4.56Q23.90-2.40 21.34-0.91Q18.77 0.58 14.93 0.58M14.54-21.36Q13.15-21.36 11.98-20.88Q10.80-20.40 9.96-19.51Q9.12-18.62 8.64-17.42Q8.16-16.22 8.16-14.78L8.16-14.45L20.59-14.45L20.59-14.93Q20.59-17.86 18.94-19.61Q17.28-21.36 14.54-21.36"/><path transform="translate(144 0)" d="M26.83 0L23.62 0Q21.36 0 20.23-1.15Q19.10-2.30 18.86-4.18L18.62-4.18Q17.90-1.92 16.01-0.67Q14.11 0.58 11.18 0.58Q7.39 0.58 5.14-1.42Q2.88-3.41 2.88-6.91Q2.88-10.51 5.54-12.41Q8.21-14.30 13.73-14.30L18.48-14.30L18.48-16.22Q18.48-21.26 13.15-21.26Q10.75-21.26 9.26-20.33Q7.78-19.39 6.77-17.86L3.65-20.40Q4.70-22.42 7.20-23.88Q9.70-25.34 13.63-25.34Q18.34-25.34 21.02-23.09Q23.71-20.83 23.71-16.56L23.71-4.13L26.83-4.13L26.83 0M12.67-3.26Q15.22-3.26 16.85-4.42Q18.48-5.57 18.48-7.39L18.48-10.99L13.82-10.99Q8.16-10.99 8.16-7.58L8.16-6.62Q8.16-4.94 9.36-4.10Q10.56-3.26 12.67-3.26"/><path transform="translate(172.8 0)" d="M3.65 0L3.65-4.22L10.22-4.22L10.22-20.54L3.65-20.54L3.65-24.77L15.46-24.77L15.46-18.19L15.74-18.19Q16.08-19.49 16.70-20.69Q17.33-21.89 18.29-22.78Q19.25-23.66 20.64-24.22Q22.03-24.77 23.90-24.77L26.88-24.77L26.88-19.78L21.98-19.78Q19.10-19.78 17.28-18.07Q15.46-16.37 15.46-13.49L15.46-4.22L24.43-4.22L24.43 0"/><path transform="translate(201.6 0)" d="M21.65-12L7.15-12L7.15-17.23L21.65-17.23"/><path transform="translate(230.4 0)" d="M3.60 0L3.60-4.22L11.81-4.22L11.81-31.30L3.60-31.30L3.60-35.52L17.04-35.52L17.04-4.22L25.25-4.22L25.25 0"/><path transform="translate(259.2 0)" d="M14.93 0.58Q12.10 0.58 9.84-0.34Q7.58-1.25 6.05-2.93Q4.51-4.61 3.70-6.98Q2.88-9.36 2.88-12.34Q2.88-15.31 3.72-17.71Q4.56-20.11 6.07-21.82Q7.58-23.52 9.74-24.43Q11.90-25.34 14.54-25.34Q17.14-25.34 19.25-24.46Q21.36-23.57 22.85-21.94Q24.34-20.30 25.13-18.05Q25.92-15.79 25.92-13.06L25.92-11.09L8.16-11.09L8.16-10.27Q8.16-7.34 9.98-5.50Q11.81-3.65 15.02-3.65Q17.42-3.65 19.13-4.68Q20.83-5.71 21.89-7.44L25.15-4.56Q23.90-2.40 21.34-0.91Q18.77 0.58 14.93 0.58M14.54-21.36Q13.15-21.36 11.98-20.88Q10.80-20.40 9.96-19.51Q9.12-18.62 8.64-17.42Q8.16-16.22 8.16-14.78L8.16-14.45L20.59-14.45L20.59-14.93Q20.59-17.86 18.94-19.61Q17.28-21.36 14.54-21.36"/><path transform="translate(288 0)" d="M26.83 0L23.62 0Q21.36 0 20.23-1.15Q19.10-2.30 18.86-4.18L18.62-4.18Q17.90-1.92 16.01-0.67Q14.11 0.58 11.18 0.58Q7.39 0.58 5.14-1.42Q2.88-3.41 2.88-6.91Q2.88-10.51 5.54-12.41Q8.21-14.30 13.73-14.30L18.48-14.30L18.48-16.22Q18.48-21.26 13.15-21.26Q10.75-21.26 9.26-20.33Q7.78-19.39 6.77-17.86L3.65-20.40Q4.70-22.42 7.20-23.88Q9.70-25.34 13.63-25.34Q18.34-25.34 21.02-23.09Q23.71-20.83 23.71-16.56L23.71-4.13L26.83-4.13L26.83 0M12.67-3.26Q15.22-3.26 16.85-4.42Q18.48-5.57 18.48-7.39L18.48-10.99L13.82-10.99Q8.16-10.99 8.16-7.58L8.16-6.62Q8.16-4.94 9.36-4.10Q10.56-3.26 12.67-3.26"/><path transform="translate(316.8 0)" d="M3.65 0L3.65-4.22L10.22-4.22L10.22-20.54L3.65-20.54L3.65-24.77L15.46-24.77L15.46-18.19L15.74-18.19Q16.08-19.49 16.70-20.69Q17.33-21.89 18.29-22.78Q19.25-23.66 20.64-24.22Q22.03-24.77 23.90-24.77L26.88-24.77L26.88-19.78L21.98-19.78Q19.10-19.78 17.28-18.07Q15.46-16.37 15.46-13.49L15.46-4.22L24.43-4.22L24.43 0"/><path transform="translate(345.6 0)" d="M9.26 0L4.03 0L4.03-24.77L9.26-24.77L9.26-20.54L9.50-20.54Q9.89-21.50 10.49-22.39Q11.09-23.28 11.95-23.93Q12.82-24.58 13.97-24.96Q15.12-25.34 16.66-25.34Q20.40-25.34 22.70-22.90Q25.01-20.45 25.01-15.94L25.01 0L19.78 0L19.78-15.17Q19.78-21.07 14.64-21.07Q13.63-21.07 12.67-20.81Q11.71-20.54 10.94-20.02Q10.18-19.49 9.72-18.67Q9.26-17.86 9.26-16.80"/><path transform="translate(374.4 0)" d="M15.94-29.28Q13.92-29.28 13.13-30.10Q12.34-30.91 12.34-32.11L12.34-33.12Q12.34-34.32 13.13-35.14Q13.92-35.95 15.89-35.95Q17.90-35.95 18.70-35.14Q19.49-34.32 19.49-33.12L19.49-32.11Q19.49-30.91 18.70-30.10Q17.90-29.28 15.94-29.28M4.85 0L4.85-4.22L13.30-4.22L13.30-20.54L4.85-20.54L4.85-24.77L18.53-24.77L18.53-4.22L26.45-4.22L26.45 0"/><path transform="translate(403.2 0)" d="M9.26 0L4.03 0L4.03-24.77L9.26-24.77L9.26-20.54L9.50-20.54Q9.89-21.50 10.49-22.39Q11.09-23.28 11.95-23.93Q12.82-24.58 13.97-24.96Q15.12-25.34 16.66-25.34Q20.40-25.34 22.70-22.90Q25.01-20.45 25.01-15.94L25.01 0L19.78 0L19.78-15.17Q19.78-21.07 14.64-21.07Q13.63-21.07 12.67-20.81Q11.71-20.54 10.94-20.02Q10.18-19.49 9.72-18.67Q9.26-17.86 9.26-16.80"/><path transform="translate(432 0)" d="M27.36 2.69Q27.36 6.53 24.14 8.35Q20.93 10.18 14.35 10.18Q11.14 10.18 8.95 9.77Q6.77 9.36 5.40 8.59Q4.03 7.82 3.43 6.72Q2.83 5.62 2.83 4.22Q2.83 2.21 3.96 1.08Q5.09-0.05 7.15-0.58L7.15-1.06Q5.90-1.54 5.16-2.40Q4.42-3.26 4.42-4.66Q4.42-6.48 5.66-7.42Q6.91-8.35 8.88-8.83L8.88-9.07Q6.62-10.13 5.38-12.05Q4.13-13.97 4.13-16.66Q4.13-18.62 4.85-20.23Q5.57-21.84 6.89-22.97Q8.21-24.10 10.06-24.72Q11.90-25.34 14.21-25.34Q16.80-25.34 18.86-24.53L18.86-25.34Q18.86-26.78 19.68-27.74Q20.50-28.70 22.18-28.70L26.69-28.70L26.69-24.58L20.93-24.58L20.93-23.42Q22.56-22.32 23.42-20.62Q24.29-18.91 24.29-16.66Q24.29-14.69 23.57-13.08Q22.85-11.47 21.53-10.34Q20.21-9.22 18.36-8.62Q16.51-8.02 14.21-8.02Q12.58-8.02 11.14-8.30Q10.27-8.06 9.41-7.49Q8.54-6.91 8.54-5.90Q8.54-4.75 9.65-4.46Q10.75-4.18 12.38-4.18L17.95-4.18Q22.94-4.18 25.15-2.28Q27.36-0.38 27.36 2.69M22.46 3.02Q22.46 1.78 21.46 1.03Q20.45 0.29 17.81 0.29L9.22 0.29Q7.39 1.15 7.39 3.07Q7.39 4.46 8.57 5.47Q9.74 6.48 12.48 6.48L16.37 6.48Q19.34 6.48 20.90 5.59Q22.46 4.70 22.46 3.02M14.21-11.62Q16.75-11.62 17.95-12.82Q19.15-14.02 19.15-16.03L19.15-17.33Q19.15-19.34 17.95-20.54Q16.75-21.74 14.21-21.74Q11.66-21.74 10.46-20.54Q9.26-19.34 9.26-17.33L9.26-16.03Q9.26-14.02 10.46-12.82Q11.66-11.62 14.21-11.62"/></g>
    <rect x="664.8" y="80" width="22" height="36" rx="5" ry="5" fill="#d9954a"/>
    <g transform="translate(197 150)" fill="#8b887f"><path transform="translate(0 0)" d="M1.64 0L0.45-7.74L1.51-7.74L2.40-1.05L2.53-1.05L3.86-7.74L5.17-7.74L6.50-1.05L6.63-1.05L7.51-7.74L8.55-7.74L7.36 0L5.80 0L4.58-6.48L4.46-6.48L3.19 0"/><path transform="translate(9 0)" d="M1.16 0L1.16-1.02L3.42-1.02L3.42-6.72L1.16-6.72L1.16-7.74L4.62-7.74L4.62-5.79L4.69-5.79Q4.93-6.71 5.60-7.22Q6.27-7.74 7.30-7.74L8.38-7.74L8.38-6.54L6.93-6.54Q5.89-6.54 5.26-5.94Q4.62-5.34 4.62-4.37L4.62-1.02L7.62-1.02L7.62 0"/><path transform="translate(18 0)" d="M4.98-9.45Q4.46-9.45 4.25-9.67Q4.04-9.88 4.04-10.21L4.04-10.46Q4.04-10.79 4.25-11Q4.46-11.22 4.98-11.22Q5.50-11.22 5.71-11Q5.92-10.79 5.92-10.46L5.92-10.21Q5.92-9.88 5.71-9.67Q5.50-9.45 4.98-9.45M1.59 0L1.59-1.02L4.38-1.02L4.38-6.72L1.59-6.72L1.59-7.74L5.58-7.74L5.58-1.02L8.19-1.02L8.19 0"/><path transform="translate(27 0)" d="M7.89 0L4.88 0Q3.99 0 3.58-0.49Q3.17-0.99 3.17-1.77L3.17-6.72L0.59-6.72L0.59-7.74L2.50-7.74Q2.90-7.74 3.05-7.90Q3.21-8.05 3.21-8.45L3.21-10.47L4.37-10.47L4.37-7.74L7.89-7.74L7.89-6.72L4.37-6.72L4.37-1.02L7.89-1.02"/><path transform="translate(36 0)" d="M4.63 0.18Q3.79 0.18 3.13-0.10Q2.46-0.39 1.99-0.92Q1.51-1.45 1.26-2.20Q1-2.94 1-3.85Q1-4.79 1.27-5.54Q1.53-6.29 1.99-6.82Q2.46-7.35 3.11-7.63Q3.76-7.92 4.56-7.92Q5.34-7.92 5.98-7.63Q6.61-7.35 7.06-6.85Q7.51-6.34 7.75-5.65Q8-4.96 8-4.14L8-3.57L2.27-3.57L2.27-3.21Q2.27-2.70 2.43-2.27Q2.59-1.83 2.90-1.51Q3.21-1.20 3.65-1.03Q4.09-0.85 4.63-0.85Q5.42-0.85 5.98-1.21Q6.55-1.57 6.85-2.21L7.74-1.60Q7.39-0.82 6.59-0.32Q5.79 0.18 4.63 0.18M4.56-6.93Q4.06-6.93 3.65-6.75Q3.23-6.57 2.92-6.25Q2.61-5.94 2.44-5.51Q2.27-5.08 2.27-4.58L2.27-4.47L6.71-4.47L6.71-4.63Q6.71-5.14 6.55-5.56Q6.39-5.98 6.11-6.29Q5.84-6.60 5.44-6.76Q5.04-6.93 4.56-6.93"/><path transform="translate(54 0)" d="M4.50 0.18Q3.69 0.18 3.04-0.10Q2.38-0.39 1.93-0.92Q1.47-1.45 1.23-2.20Q0.99-2.94 0.99-3.87Q0.99-4.79 1.23-5.54Q1.47-6.29 1.93-6.82Q2.38-7.35 3.04-7.63Q3.69-7.92 4.50-7.92Q5.31-7.92 5.96-7.63Q6.61-7.35 7.07-6.82Q7.53-6.29 7.77-5.54Q8.01-4.79 8.01-3.87Q8.01-2.94 7.77-2.20Q7.53-1.45 7.07-0.92Q6.61-0.39 5.96-0.10Q5.31 0.18 4.50 0.18M4.50-0.85Q5.50-0.85 6.12-1.45Q6.73-2.05 6.73-3.31L6.73-4.42Q6.73-5.68 6.12-6.29Q5.50-6.88 4.50-6.88Q3.49-6.88 2.88-6.29Q2.27-5.68 2.27-4.42L2.27-3.31Q2.27-2.05 2.88-1.45Q3.49-0.85 4.50-0.85"/><path transform="translate(63 0)" d="M2.67 0L1.47 0L1.47-7.74L2.67-7.74L2.67-6.48L2.73-6.48Q2.85-6.76 3.03-7.03Q3.21-7.29 3.47-7.48Q3.73-7.68 4.09-7.80Q4.46-7.92 4.93-7.92Q6.15-7.92 6.88-7.15Q7.62-6.37 7.62-4.96L7.62 0L6.42 0L6.42-4.75Q6.42-5.82 5.96-6.34Q5.49-6.85 4.59-6.85Q4.23-6.85 3.88-6.76Q3.54-6.67 3.27-6.50Q3-6.31 2.84-6.03Q2.67-5.75 2.67-5.37"/><path transform="translate(81 0)" d="M1.43 3L1.43-7.74L2.63-7.74L2.63-6.48L2.69-6.48Q3.44-7.92 5.07-7.92Q6.50-7.92 7.30-6.85Q8.10-5.79 8.10-3.87Q8.10-1.95 7.30-0.89Q6.50 0.18 5.07 0.18Q3.44 0.18 2.69-1.26L2.63-1.26L2.63 3L1.43 3M4.60-0.89Q5.65-0.89 6.23-1.52Q6.81-2.16 6.81-3.21L6.81-4.53Q6.81-5.58 6.23-6.22Q5.65-6.85 4.60-6.85Q4.20-6.85 3.84-6.75Q3.48-6.64 3.21-6.44Q2.94-6.24 2.78-5.95Q2.63-5.65 2.63-5.26L2.63-2.48Q2.63-2.08 2.78-1.79Q2.94-1.50 3.21-1.30Q3.48-1.09 3.84-0.99Q4.20-0.89 4.60-0.89"/><path transform="translate(90 0)" d="M8.25 0L7.42 0Q6.72 0 6.42-0.36Q6.12-0.72 6.04-1.26L5.97-1.26Q5.71-0.58 5.15-0.20Q4.59 0.18 3.65 0.18Q2.43 0.18 1.71-0.45Q0.99-1.08 0.99-2.17Q0.99-3.25 1.78-3.84Q2.57-4.42 4.32-4.42L5.97-4.42L5.97-5.19Q5.97-6.04 5.49-6.47Q5.01-6.90 4.13-6.90Q3.34-6.90 2.85-6.59Q2.36-6.29 2.05-5.76L1.24-6.36Q1.40-6.66 1.65-6.94Q1.91-7.23 2.28-7.45Q2.65-7.67 3.13-7.79Q3.61-7.92 4.20-7.92Q5.56-7.92 6.37-7.23Q7.17-6.54 7.17-5.31L7.17-1.05L8.25-1.05L8.25 0M3.86-0.82Q4.32-0.82 4.70-0.94Q5.08-1.05 5.37-1.24Q5.65-1.42 5.81-1.69Q5.97-1.95 5.97-2.25L5.97-3.52L4.32-3.52Q3.24-3.52 2.75-3.23Q2.25-2.92 2.25-2.35L2.25-2.04Q2.25-1.44 2.68-1.13Q3.10-0.82 3.86-0.82"/><path transform="translate(99 0)" d="M1.43 3L1.43-7.74L2.63-7.74L2.63-6.48L2.69-6.48Q3.44-7.92 5.07-7.92Q6.50-7.92 7.30-6.85Q8.10-5.79 8.10-3.87Q8.10-1.95 7.30-0.89Q6.50 0.18 5.07 0.18Q3.44 0.18 2.69-1.26L2.63-1.26L2.63 3L1.43 3M4.60-0.89Q5.65-0.89 6.23-1.52Q6.81-2.16 6.81-3.21L6.81-4.53Q6.81-5.58 6.23-6.22Q5.65-6.85 4.60-6.85Q4.20-6.85 3.84-6.75Q3.48-6.64 3.21-6.44Q2.94-6.24 2.78-5.95Q2.63-5.65 2.63-5.26L2.63-2.48Q2.63-2.08 2.78-1.79Q2.94-1.50 3.21-1.30Q3.48-1.09 3.84-0.99Q4.20-0.89 4.60-0.89"/><path transform="translate(108 0)" d="M4.63 0.18Q3.79 0.18 3.13-0.10Q2.46-0.39 1.99-0.92Q1.51-1.45 1.26-2.20Q1-2.94 1-3.85Q1-4.79 1.27-5.54Q1.53-6.29 1.99-6.82Q2.46-7.35 3.11-7.63Q3.76-7.92 4.56-7.92Q5.34-7.92 5.98-7.63Q6.61-7.35 7.06-6.85Q7.51-6.34 7.75-5.65Q8-4.96 8-4.14L8-3.57L2.27-3.57L2.27-3.21Q2.27-2.70 2.43-2.27Q2.59-1.83 2.90-1.51Q3.21-1.20 3.65-1.03Q4.09-0.85 4.63-0.85Q5.42-0.85 5.98-1.21Q6.55-1.57 6.85-2.21L7.74-1.60Q7.39-0.82 6.59-0.32Q5.79 0.18 4.63 0.18M4.56-6.93Q4.06-6.93 3.65-6.75Q3.23-6.57 2.92-6.25Q2.61-5.94 2.44-5.51Q2.27-5.08 2.27-4.58L2.27-4.47L6.71-4.47L6.71-4.63Q6.71-5.14 6.55-5.56Q6.39-5.98 6.11-6.29Q5.84-6.60 5.44-6.76Q5.04-6.93 4.56-6.93"/><path transform="translate(117 0)" d="M1.16 0L1.16-1.02L3.42-1.02L3.42-6.72L1.16-6.72L1.16-7.74L4.62-7.74L4.62-5.79L4.69-5.79Q4.93-6.71 5.60-7.22Q6.27-7.74 7.30-7.74L8.38-7.74L8.38-6.54L6.93-6.54Q5.89-6.54 5.26-5.94Q4.62-5.34 4.62-4.37L4.62-1.02L7.62-1.02L7.62 0"/><path transform="translate(135 0)" d="M9-4L0-4L0-5.12L9-5.12"/><path transform="translate(153 0)" d="M1.16 0L1.16-1.02L3.42-1.02L3.42-6.72L1.16-6.72L1.16-7.74L4.62-7.74L4.62-5.79L4.69-5.79Q4.93-6.71 5.60-7.22Q6.27-7.74 7.30-7.74L8.38-7.74L8.38-6.54L6.93-6.54Q5.89-6.54 5.26-5.94Q4.62-5.34 4.62-4.37L4.62-1.02L7.62-1.02L7.62 0"/><path transform="translate(162 0)" d="M4.63 0.18Q3.79 0.18 3.13-0.10Q2.46-0.39 1.99-0.92Q1.51-1.45 1.26-2.20Q1-2.94 1-3.85Q1-4.79 1.27-5.54Q1.53-6.29 1.99-6.82Q2.46-7.35 3.11-7.63Q3.76-7.92 4.56-7.92Q5.34-7.92 5.98-7.63Q6.61-7.35 7.06-6.85Q7.51-6.34 7.75-5.65Q8-4.96 8-4.14L8-3.57L2.27-3.57L2.27-3.21Q2.27-2.70 2.43-2.27Q2.59-1.83 2.90-1.51Q3.21-1.20 3.65-1.03Q4.09-0.85 4.63-0.85Q5.42-0.85 5.98-1.21Q6.55-1.57 6.85-2.21L7.74-1.60Q7.39-0.82 6.59-0.32Q5.79 0.18 4.63 0.18M4.56-6.93Q4.06-6.93 3.65-6.75Q3.23-6.57 2.92-6.25Q2.61-5.94 2.44-5.51Q2.27-5.08 2.27-4.58L2.27-4.47L6.71-4.47L6.71-4.63Q6.71-5.14 6.55-5.56Q6.39-5.98 6.11-6.29Q5.84-6.60 5.44-6.76Q5.04-6.93 4.56-6.93"/><path transform="translate(171 0)" d="M8.25 0L7.42 0Q6.72 0 6.42-0.36Q6.12-0.72 6.04-1.26L5.97-1.26Q5.71-0.58 5.15-0.20Q4.59 0.18 3.65 0.18Q2.43 0.18 1.71-0.45Q0.99-1.08 0.99-2.17Q0.99-3.25 1.78-3.84Q2.57-4.42 4.32-4.42L5.97-4.42L5.97-5.19Q5.97-6.04 5.49-6.47Q5.01-6.90 4.13-6.90Q3.34-6.90 2.85-6.59Q2.36-6.29 2.05-5.76L1.24-6.36Q1.40-6.66 1.65-6.94Q1.91-7.23 2.28-7.45Q2.65-7.67 3.13-7.79Q3.61-7.92 4.20-7.92Q5.56-7.92 6.37-7.23Q7.17-6.54 7.17-5.31L7.17-1.05L8.25-1.05L8.25 0M3.86-0.82Q4.32-0.82 4.70-0.94Q5.08-1.05 5.37-1.24Q5.65-1.42 5.81-1.69Q5.97-1.95 5.97-2.25L5.97-3.52L4.32-3.52Q3.24-3.52 2.75-3.23Q2.25-2.92 2.25-2.35L2.25-2.04Q2.25-1.44 2.68-1.13Q3.10-0.82 3.86-0.82"/><path transform="translate(180 0)" d="M6.38 0L6.38-1.26L6.31-1.26Q5.56 0.18 3.93 0.18Q2.50 0.18 1.70-0.89Q0.90-1.95 0.90-3.87Q0.90-5.79 1.70-6.85Q2.50-7.92 3.93-7.92Q5.56-7.92 6.31-6.48L6.38-6.48L6.38-11.10L7.57-11.10L7.57 0L6.38 0M4.39-0.89Q4.80-0.89 5.16-0.99Q5.52-1.09 5.79-1.30Q6.06-1.50 6.22-1.79Q6.38-2.08 6.38-2.48L6.38-5.26Q6.38-5.65 6.22-5.95Q6.06-6.24 5.79-6.44Q5.52-6.64 5.16-6.75Q4.80-6.85 4.39-6.85Q3.34-6.85 2.77-6.22Q2.19-5.58 2.19-4.53L2.19-3.21Q2.19-2.16 2.77-1.52Q3.34-0.89 4.39-0.89"/><path transform="translate(198 0)" d="M8.25 0L7.42 0Q6.72 0 6.42-0.36Q6.12-0.72 6.04-1.26L5.97-1.26Q5.71-0.58 5.15-0.20Q4.59 0.18 3.65 0.18Q2.43 0.18 1.71-0.45Q0.99-1.08 0.99-2.17Q0.99-3.25 1.78-3.84Q2.57-4.42 4.32-4.42L5.97-4.42L5.97-5.19Q5.97-6.04 5.49-6.47Q5.01-6.90 4.13-6.90Q3.34-6.90 2.85-6.59Q2.36-6.29 2.05-5.76L1.24-6.36Q1.40-6.66 1.65-6.94Q1.91-7.23 2.28-7.45Q2.65-7.67 3.13-7.79Q3.61-7.92 4.20-7.92Q5.56-7.92 6.37-7.23Q7.17-6.54 7.17-5.31L7.17-1.05L8.25-1.05L8.25 0M3.86-0.82Q4.32-0.82 4.70-0.94Q5.08-1.05 5.37-1.24Q5.65-1.42 5.81-1.69Q5.97-1.95 5.97-2.25L5.97-3.52L4.32-3.52Q3.24-3.52 2.75-3.23Q2.25-2.92 2.25-2.35L2.25-2.04Q2.25-1.44 2.68-1.13Q3.10-0.82 3.86-0.82"/><path transform="translate(207 0)" d="M2.67 0L1.47 0L1.47-7.74L2.67-7.74L2.67-6.48L2.73-6.48Q2.85-6.76 3.03-7.03Q3.21-7.29 3.47-7.48Q3.73-7.68 4.09-7.80Q4.46-7.92 4.93-7.92Q6.15-7.92 6.88-7.15Q7.62-6.37 7.62-4.96L7.62 0L6.42 0L6.42-4.75Q6.42-5.82 5.96-6.34Q5.49-6.85 4.59-6.85Q4.23-6.85 3.88-6.76Q3.54-6.67 3.27-6.50Q3-6.31 2.84-6.03Q2.67-5.75 2.67-5.37"/><path transform="translate(216 0)" d="M6.38 0L6.38-1.26L6.31-1.26Q5.56 0.18 3.93 0.18Q2.50 0.18 1.70-0.89Q0.90-1.95 0.90-3.87Q0.90-5.79 1.70-6.85Q2.50-7.92 3.93-7.92Q5.56-7.92 6.31-6.48L6.38-6.48L6.38-11.10L7.57-11.10L7.57 0L6.38 0M4.39-0.89Q4.80-0.89 5.16-0.99Q5.52-1.09 5.79-1.30Q6.06-1.50 6.22-1.79Q6.38-2.08 6.38-2.48L6.38-5.26Q6.38-5.65 6.22-5.95Q6.06-6.24 5.79-6.44Q5.52-6.64 5.16-6.75Q4.80-6.85 4.39-6.85Q3.34-6.85 2.77-6.22Q2.19-5.58 2.19-4.53L2.19-3.21Q2.19-2.16 2.77-1.52Q3.34-0.89 4.39-0.89"/><path transform="translate(234 0)" d="M4.77 0.18Q3.93 0.18 3.28-0.11Q2.63-0.40 2.17-0.93Q1.72-1.45 1.49-2.21Q1.26-2.96 1.26-3.87Q1.26-4.79 1.50-5.54Q1.74-6.29 2.19-6.82Q2.64-7.35 3.28-7.63Q3.93-7.92 4.75-7.92Q5.88-7.92 6.59-7.42Q7.29-6.93 7.62-6.13L6.66-5.62Q6.45-6.22 5.96-6.55Q5.47-6.88 4.75-6.88Q4.23-6.88 3.82-6.71Q3.40-6.54 3.12-6.22Q2.84-5.91 2.69-5.47Q2.55-5.04 2.55-4.53L2.55-3.21Q2.55-2.70 2.69-2.27Q2.84-1.83 3.12-1.51Q3.40-1.20 3.82-1.03Q4.25-0.85 4.79-0.85Q5.56-0.85 6.08-1.21Q6.59-1.57 6.88-2.21L7.74-1.62Q7.39-0.84 6.67-0.33Q5.94 0.18 4.77 0.18"/><path transform="translate(243 0)" d="M1.47 0L1.47-11.10L2.67-11.10L2.67-6.48L2.73-6.48Q2.85-6.76 3.03-7.03Q3.21-7.29 3.47-7.48Q3.73-7.68 4.09-7.80Q4.46-7.92 4.93-7.92Q6.15-7.92 6.88-7.15Q7.62-6.37 7.62-4.96L7.62 0L6.42 0L6.42-4.75Q6.42-5.82 5.96-6.34Q5.49-6.85 4.59-6.85Q4.23-6.85 3.88-6.76Q3.54-6.67 3.27-6.50Q3-6.31 2.84-6.03Q2.67-5.75 2.67-5.37L2.67 0"/><path transform="translate(252 0)" d="M4.63 0.18Q3.79 0.18 3.13-0.10Q2.46-0.39 1.99-0.92Q1.51-1.45 1.26-2.20Q1-2.94 1-3.85Q1-4.79 1.27-5.54Q1.53-6.29 1.99-6.82Q2.46-7.35 3.11-7.63Q3.76-7.92 4.56-7.92Q5.34-7.92 5.98-7.63Q6.61-7.35 7.06-6.85Q7.51-6.34 7.75-5.65Q8-4.96 8-4.14L8-3.57L2.27-3.57L2.27-3.21Q2.27-2.70 2.43-2.27Q2.59-1.83 2.90-1.51Q3.21-1.20 3.65-1.03Q4.09-0.85 4.63-0.85Q5.42-0.85 5.98-1.21Q6.55-1.57 6.85-2.21L7.74-1.60Q7.39-0.82 6.59-0.32Q5.79 0.18 4.63 0.18M4.56-6.93Q4.06-6.93 3.65-6.75Q3.23-6.57 2.92-6.25Q2.61-5.94 2.44-5.51Q2.27-5.08 2.27-4.58L2.27-4.47L6.71-4.47L6.71-4.63Q6.71-5.14 6.55-5.56Q6.39-5.98 6.11-6.29Q5.84-6.60 5.44-6.76Q5.04-6.93 4.56-6.93"/><path transform="translate(261 0)" d="M4.77 0.18Q3.93 0.18 3.28-0.11Q2.63-0.40 2.17-0.93Q1.72-1.45 1.49-2.21Q1.26-2.96 1.26-3.87Q1.26-4.79 1.50-5.54Q1.74-6.29 2.19-6.82Q2.64-7.35 3.28-7.63Q3.93-7.92 4.75-7.92Q5.88-7.92 6.59-7.42Q7.29-6.93 7.62-6.13L6.66-5.62Q6.45-6.22 5.96-6.55Q5.47-6.88 4.75-6.88Q4.23-6.88 3.82-6.71Q3.40-6.54 3.12-6.22Q2.84-5.91 2.69-5.47Q2.55-5.04 2.55-4.53L2.55-3.21Q2.55-2.70 2.69-2.27Q2.84-1.83 3.12-1.51Q3.40-1.20 3.82-1.03Q4.25-0.85 4.79-0.85Q5.56-0.85 6.08-1.21Q6.59-1.57 6.88-2.21L7.74-1.62Q7.39-0.84 6.67-0.33Q5.94 0.18 4.77 0.18"/><path transform="translate(270 0)" d="M1.58 0L1.58-11.10L2.77-11.10L2.77-4.09L2.84-4.09L4.18-5.37L6.76-7.74L8.23-7.74L5.02-4.71L8.61 0L7.13 0L4.11-4.02L2.77-2.80L2.77 0"/><path transform="translate(279 0)" d="M4.63 0.18Q3.79 0.18 3.13-0.10Q2.46-0.39 1.99-0.92Q1.51-1.45 1.26-2.20Q1-2.94 1-3.85Q1-4.79 1.27-5.54Q1.53-6.29 1.99-6.82Q2.46-7.35 3.11-7.63Q3.76-7.92 4.56-7.92Q5.34-7.92 5.98-7.63Q6.61-7.35 7.06-6.85Q7.51-6.34 7.75-5.65Q8-4.96 8-4.14L8-3.57L2.27-3.57L2.27-3.21Q2.27-2.70 2.43-2.27Q2.59-1.83 2.90-1.51Q3.21-1.20 3.65-1.03Q4.09-0.85 4.63-0.85Q5.42-0.85 5.98-1.21Q6.55-1.57 6.85-2.21L7.74-1.60Q7.39-0.82 6.59-0.32Q5.79 0.18 4.63 0.18M4.56-6.93Q4.06-6.93 3.65-6.75Q3.23-6.57 2.92-6.25Q2.61-5.94 2.44-5.51Q2.27-5.08 2.27-4.58L2.27-4.47L6.71-4.47L6.71-4.63Q6.71-5.14 6.55-5.56Q6.39-5.98 6.11-6.29Q5.84-6.60 5.44-6.76Q5.04-6.93 4.56-6.93"/><path transform="translate(288 0)" d="M6.38 0L6.38-1.26L6.31-1.26Q5.56 0.18 3.93 0.18Q2.50 0.18 1.70-0.89Q0.90-1.95 0.90-3.87Q0.90-5.79 1.70-6.85Q2.50-7.92 3.93-7.92Q5.56-7.92 6.31-6.48L6.38-6.48L6.38-11.10L7.57-11.10L7.57 0L6.38 0M4.39-0.89Q4.80-0.89 5.16-0.99Q5.52-1.09 5.79-1.30Q6.06-1.50 6.22-1.79Q6.38-2.08 6.38-2.48L6.38-5.26Q6.38-5.65 6.22-5.95Q6.06-6.24 5.79-6.44Q5.52-6.64 5.16-6.75Q4.80-6.85 4.39-6.85Q3.34-6.85 2.77-6.22Q2.19-5.58 2.19-4.53L2.19-3.21Q2.19-2.16 2.77-1.52Q3.34-0.89 4.39-0.89"/><path transform="translate(306 0)" d="M7.89 0L4.88 0Q3.99 0 3.58-0.49Q3.17-0.99 3.17-1.77L3.17-6.72L0.59-6.72L0.59-7.74L2.50-7.74Q2.90-7.74 3.05-7.90Q3.21-8.05 3.21-8.45L3.21-10.47L4.37-10.47L4.37-7.74L7.89-7.74L7.89-6.72L4.37-6.72L4.37-1.02L7.89-1.02"/><path transform="translate(315 0)" d="M1.47 0L1.47-11.10L2.67-11.10L2.67-6.48L2.73-6.48Q2.85-6.76 3.03-7.03Q3.21-7.29 3.47-7.48Q3.73-7.68 4.09-7.80Q4.46-7.92 4.93-7.92Q6.15-7.92 6.88-7.15Q7.62-6.37 7.62-4.96L7.62 0L6.42 0L6.42-4.75Q6.42-5.82 5.96-6.34Q5.49-6.85 4.59-6.85Q4.23-6.85 3.88-6.76Q3.54-6.67 3.27-6.50Q3-6.31 2.84-6.03Q2.67-5.75 2.67-5.37L2.67 0"/><path transform="translate(324 0)" d="M4.63 0.18Q3.79 0.18 3.13-0.10Q2.46-0.39 1.99-0.92Q1.51-1.45 1.26-2.20Q1-2.94 1-3.85Q1-4.79 1.27-5.54Q1.53-6.29 1.99-6.82Q2.46-7.35 3.11-7.63Q3.76-7.92 4.56-7.92Q5.34-7.92 5.98-7.63Q6.61-7.35 7.06-6.85Q7.51-6.34 7.75-5.65Q8-4.96 8-4.14L8-3.57L2.27-3.57L2.27-3.21Q2.27-2.70 2.43-2.27Q2.59-1.83 2.90-1.51Q3.21-1.20 3.65-1.03Q4.09-0.85 4.63-0.85Q5.42-0.85 5.98-1.21Q6.55-1.57 6.85-2.21L7.74-1.60Q7.39-0.82 6.59-0.32Q5.79 0.18 4.63 0.18M4.56-6.93Q4.06-6.93 3.65-6.75Q3.23-6.57 2.92-6.25Q2.61-5.94 2.44-5.51Q2.27-5.08 2.27-4.58L2.27-4.47L6.71-4.47L6.71-4.63Q6.71-5.14 6.55-5.56Q6.39-5.98 6.11-6.29Q5.84-6.60 5.44-6.76Q5.04-6.93 4.56-6.93"/><path transform="translate(342 0)" d="M1.92 0L0.81 0L0.81-7.74L1.92-7.74L1.92-6.84L1.98-6.84Q2.16-7.29 2.49-7.60Q2.82-7.92 3.46-7.92Q4.14-7.92 4.47-7.58Q4.80-7.25 4.88-6.71L4.92-6.71Q5.13-7.23 5.52-7.57Q5.91-7.92 6.60-7.92Q7.54-7.92 7.87-7.26Q8.19-6.60 8.19-5.37L8.19 0L7.08 0L7.08-5.17Q7.08-6.16 6.88-6.55Q6.67-6.93 6.13-6.93Q5.65-6.93 5.35-6.62Q5.05-6.31 5.05-5.68L5.05 0L3.94 0L3.94-5.17Q3.94-6.16 3.74-6.55Q3.54-6.93 3.01-6.93Q2.53-6.93 2.23-6.62Q1.92-6.31 1.92-5.68"/><path transform="translate(351 0)" d="M4.50 0.18Q3.69 0.18 3.04-0.10Q2.38-0.39 1.93-0.92Q1.47-1.45 1.23-2.20Q0.99-2.94 0.99-3.87Q0.99-4.79 1.23-5.54Q1.47-6.29 1.93-6.82Q2.38-7.35 3.04-7.63Q3.69-7.92 4.50-7.92Q5.31-7.92 5.96-7.63Q6.61-7.35 7.07-6.82Q7.53-6.29 7.77-5.54Q8.01-4.79 8.01-3.87Q8.01-2.94 7.77-2.20Q7.53-1.45 7.07-0.92Q6.61-0.39 5.96-0.10Q5.31 0.18 4.50 0.18M4.50-0.85Q5.50-0.85 6.12-1.45Q6.73-2.05 6.73-3.31L6.73-4.42Q6.73-5.68 6.12-6.29Q5.50-6.88 4.50-6.88Q3.49-6.88 2.88-6.29Q2.27-5.68 2.27-4.42L2.27-3.31Q2.27-2.05 2.88-1.45Q3.49-0.85 4.50-0.85"/><path transform="translate(360 0)" d="M1.92 0L0.81 0L0.81-7.74L1.92-7.74L1.92-6.84L1.98-6.84Q2.16-7.29 2.49-7.60Q2.82-7.92 3.46-7.92Q4.14-7.92 4.47-7.58Q4.80-7.25 4.88-6.71L4.92-6.71Q5.13-7.23 5.52-7.57Q5.91-7.92 6.60-7.92Q7.54-7.92 7.87-7.26Q8.19-6.60 8.19-5.37L8.19 0L7.08 0L7.08-5.17Q7.08-6.16 6.88-6.55Q6.67-6.93 6.13-6.93Q5.65-6.93 5.35-6.62Q5.05-6.31 5.05-5.68L5.05 0L3.94 0L3.94-5.17Q3.94-6.16 3.74-6.55Q3.54-6.93 3.01-6.93Q2.53-6.93 2.23-6.62Q1.92-6.31 1.92-5.68"/><path transform="translate(369 0)" d="M4.63 0.18Q3.79 0.18 3.13-0.10Q2.46-0.39 1.99-0.92Q1.51-1.45 1.26-2.20Q1-2.94 1-3.85Q1-4.79 1.27-5.54Q1.53-6.29 1.99-6.82Q2.46-7.35 3.11-7.63Q3.76-7.92 4.56-7.92Q5.34-7.92 5.98-7.63Q6.61-7.35 7.06-6.85Q7.51-6.34 7.75-5.65Q8-4.96 8-4.14L8-3.57L2.27-3.57L2.27-3.21Q2.27-2.70 2.43-2.27Q2.59-1.83 2.90-1.51Q3.21-1.20 3.65-1.03Q4.09-0.85 4.63-0.85Q5.42-0.85 5.98-1.21Q6.55-1.57 6.85-2.21L7.74-1.60Q7.39-0.82 6.59-0.32Q5.79 0.18 4.63 0.18M4.56-6.93Q4.06-6.93 3.65-6.75Q3.23-6.57 2.92-6.25Q2.61-5.94 2.44-5.51Q2.27-5.08 2.27-4.58L2.27-4.47L6.71-4.47L6.71-4.63Q6.71-5.14 6.55-5.56Q6.39-5.98 6.11-6.29Q5.84-6.60 5.44-6.76Q5.04-6.93 4.56-6.93"/><path transform="translate(378 0)" d="M2.67 0L1.47 0L1.47-7.74L2.67-7.74L2.67-6.48L2.73-6.48Q2.85-6.76 3.03-7.03Q3.21-7.29 3.47-7.48Q3.73-7.68 4.09-7.80Q4.46-7.92 4.93-7.92Q6.15-7.92 6.88-7.15Q7.62-6.37 7.62-4.96L7.62 0L6.42 0L6.42-4.75Q6.42-5.82 5.96-6.34Q5.49-6.85 4.59-6.85Q4.23-6.85 3.88-6.76Q3.54-6.67 3.27-6.50Q3-6.31 2.84-6.03Q2.67-5.75 2.67-5.37"/><path transform="translate(387 0)" d="M7.89 0L4.88 0Q3.99 0 3.58-0.49Q3.17-0.99 3.17-1.77L3.17-6.72L0.59-6.72L0.59-7.74L2.50-7.74Q2.90-7.74 3.05-7.90Q3.21-8.05 3.21-8.45L3.21-10.47L4.37-10.47L4.37-7.74L7.89-7.74L7.89-6.72L4.37-6.72L4.37-1.02L7.89-1.02"/><path transform="translate(405 0)" d="M5.70-4.50L7-7.74L8.21-7.74L4.37 1.69Q4.23 2.02 4.06 2.27Q3.90 2.52 3.67 2.68Q3.45 2.84 3.13 2.92Q2.82 3 2.38 3L1.24 3L1.24 1.98L3.04 1.98L3.92-0.15L0.79-7.74L2.02-7.74L3.33-4.50L4.48-1.56L4.54-1.56"/><path transform="translate(414 0)" d="M4.50 0.18Q3.69 0.18 3.04-0.10Q2.38-0.39 1.93-0.92Q1.47-1.45 1.23-2.20Q0.99-2.94 0.99-3.87Q0.99-4.79 1.23-5.54Q1.47-6.29 1.93-6.82Q2.38-7.35 3.04-7.63Q3.69-7.92 4.50-7.92Q5.31-7.92 5.96-7.63Q6.61-7.35 7.07-6.82Q7.53-6.29 7.77-5.54Q8.01-4.79 8.01-3.87Q8.01-2.94 7.77-2.20Q7.53-1.45 7.07-0.92Q6.61-0.39 5.96-0.10Q5.31 0.18 4.50 0.18M4.50-0.85Q5.50-0.85 6.12-1.45Q6.73-2.05 6.73-3.31L6.73-4.42Q6.73-5.68 6.12-6.29Q5.50-6.88 4.50-6.88Q3.49-6.88 2.88-6.29Q2.27-5.68 2.27-4.42L2.27-3.31Q2.27-2.05 2.88-1.45Q3.49-0.85 4.50-0.85"/><path transform="translate(423 0)" d="M6.33 0L6.33-1.26L6.27-1.26Q6.15-0.97 5.97-0.71Q5.79-0.45 5.53-0.25Q5.26-0.06 4.91 0.06Q4.54 0.18 4.06 0.18Q2.85 0.18 2.11-0.59Q1.38-1.36 1.38-2.77L1.38-7.74L2.58-7.74L2.58-2.98Q2.58-1.92 3.04-1.40Q3.51-0.89 4.41-0.89Q4.77-0.89 5.12-0.97Q5.46-1.06 5.73-1.24Q6-1.42 6.17-1.70Q6.33-1.98 6.33-2.37L6.33-7.74L7.53-7.74L7.53 0"/><path transform="translate(441 0)" d="M1.43 3L1.43-7.74L2.63-7.74L2.63-6.48L2.69-6.48Q3.44-7.92 5.07-7.92Q6.50-7.92 7.30-6.85Q8.10-5.79 8.10-3.87Q8.10-1.95 7.30-0.89Q6.50 0.18 5.07 0.18Q3.44 0.18 2.69-1.26L2.63-1.26L2.63 3L1.43 3M4.60-0.89Q5.65-0.89 6.23-1.52Q6.81-2.16 6.81-3.21L6.81-4.53Q6.81-5.58 6.23-6.22Q5.65-6.85 4.60-6.85Q4.20-6.85 3.84-6.75Q3.48-6.64 3.21-6.44Q2.94-6.24 2.78-5.95Q2.63-5.65 2.63-5.26L2.63-2.48Q2.63-2.08 2.78-1.79Q2.94-1.50 3.21-1.30Q3.48-1.09 3.84-0.99Q4.20-0.89 4.60-0.89"/><path transform="translate(450 0)" d="M8.25 0L7.42 0Q6.72 0 6.42-0.36Q6.12-0.72 6.04-1.26L5.97-1.26Q5.71-0.58 5.15-0.20Q4.59 0.18 3.65 0.18Q2.43 0.18 1.71-0.45Q0.99-1.08 0.99-2.17Q0.99-3.25 1.78-3.84Q2.57-4.42 4.32-4.42L5.97-4.42L5.97-5.19Q5.97-6.04 5.49-6.47Q5.01-6.90 4.13-6.90Q3.34-6.90 2.85-6.59Q2.36-6.29 2.05-5.76L1.24-6.36Q1.40-6.66 1.65-6.94Q1.91-7.23 2.28-7.45Q2.65-7.67 3.13-7.79Q3.61-7.92 4.20-7.92Q5.56-7.92 6.37-7.23Q7.17-6.54 7.17-5.31L7.17-1.05L8.25-1.05L8.25 0M3.86-0.82Q4.32-0.82 4.70-0.94Q5.08-1.05 5.37-1.24Q5.65-1.42 5.81-1.69Q5.97-1.95 5.97-2.25L5.97-3.52L4.32-3.52Q3.24-3.52 2.75-3.23Q2.25-2.92 2.25-2.35L2.25-2.04Q2.25-1.44 2.68-1.13Q3.10-0.82 3.86-0.82"/><path transform="translate(459 0)" d="M6.33 0L6.33-1.26L6.27-1.26Q6.15-0.97 5.97-0.71Q5.79-0.45 5.53-0.25Q5.26-0.06 4.91 0.06Q4.54 0.18 4.06 0.18Q2.85 0.18 2.11-0.59Q1.38-1.36 1.38-2.77L1.38-7.74L2.58-7.74L2.58-2.98Q2.58-1.92 3.04-1.40Q3.51-0.89 4.41-0.89Q4.77-0.89 5.12-0.97Q5.46-1.06 5.73-1.24Q6-1.42 6.17-1.70Q6.33-1.98 6.33-2.37L6.33-7.74L7.53-7.74L7.53 0"/><path transform="translate(468 0)" d="M4.59 0.18Q3.38 0.18 2.50-0.23Q1.62-0.64 1-1.33L1.82-2.04Q2.37-1.45 3.03-1.14Q3.69-0.82 4.62-0.82Q5.52-0.82 6.10-1.15Q6.67-1.47 6.67-2.16Q6.67-2.46 6.56-2.66Q6.45-2.86 6.25-2.98Q6.06-3.10 5.82-3.17Q5.58-3.24 5.31-3.28L4.09-3.46Q3.69-3.52 3.22-3.63Q2.75-3.73 2.36-3.97Q1.96-4.20 1.70-4.59Q1.44-4.98 1.44-5.61Q1.44-6.19 1.67-6.62Q1.91-7.05 2.32-7.34Q2.75-7.63 3.31-7.78Q3.88-7.92 4.56-7.92Q5.61-7.92 6.38-7.59Q7.15-7.26 7.71-6.67L6.93-5.94Q6.79-6.10 6.59-6.28Q6.39-6.45 6.10-6.59Q5.80-6.73 5.42-6.83Q5.02-6.92 4.51-6.92Q3.60-6.92 3.11-6.60Q2.63-6.29 2.63-5.68Q2.63-5.38 2.74-5.18Q2.85-4.98 3.04-4.86Q3.24-4.74 3.49-4.67Q3.73-4.60 3.99-4.56L5.21-4.38Q5.63-4.32 6.09-4.21Q6.55-4.11 6.94-3.88Q7.33-3.64 7.60-3.25Q7.86-2.86 7.86-2.23Q7.86-1.08 6.97-0.45Q6.08 0.18 4.59 0.18"/><path transform="translate(477 0)" d="M4.63 0.18Q3.79 0.18 3.13-0.10Q2.46-0.39 1.99-0.92Q1.51-1.45 1.26-2.20Q1-2.94 1-3.85Q1-4.79 1.27-5.54Q1.53-6.29 1.99-6.82Q2.46-7.35 3.11-7.63Q3.76-7.92 4.56-7.92Q5.34-7.92 5.98-7.63Q6.61-7.35 7.06-6.85Q7.51-6.34 7.75-5.65Q8-4.96 8-4.14L8-3.57L2.27-3.57L2.27-3.21Q2.27-2.70 2.43-2.27Q2.59-1.83 2.90-1.51Q3.21-1.20 3.65-1.03Q4.09-0.85 4.63-0.85Q5.42-0.85 5.98-1.21Q6.55-1.57 6.85-2.21L7.74-1.60Q7.39-0.82 6.59-0.32Q5.79 0.18 4.63 0.18M4.56-6.93Q4.06-6.93 3.65-6.75Q3.23-6.57 2.92-6.25Q2.61-5.94 2.44-5.51Q2.27-5.08 2.27-4.58L2.27-4.47L6.71-4.47L6.71-4.63Q6.71-5.14 6.55-5.56Q6.39-5.98 6.11-6.29Q5.84-6.60 5.44-6.76Q5.04-6.93 4.56-6.93"/></g>
</svg>